PathFileType	4	(X/Y/Z)	./resultDataOpenSim/trcMotMarkerGrf/sub09/qtm-04-03.trc
DataRate	CameraRate	NumFrames	NumMarkers	Units	OrigDataRate	OrigDataStartFrame	OrigNumFrames
250.000000	250.000000	6	24	m	250.000000	307	491
Frame#	Time	L.Toe.Tip			R.Toe.Tip			L.Ankle.Lat			R.Ankle.Lat			L.Ankle.Med			R.Ankle.Med			L.Heel			R.Heel			L.Knee.Lat			R.Knee.Lat			L.Knee.Med			R.Knee.Med			L.Thigh.Upper			R.Thigh.Upper			L.ASIS			R.ASIS			V.Sacral			L.Acromium			R.Acromium			C7			L.Elbow			R.Elbow			L.Wrist.Lat			R.Wrist.Lat
		X1	Y1	Z1	X2	Y2	Z2	X3	Y3	Z3	X4	Y4	Z4	X5	Y5	Z5	X6	Y6	Z6	X7	Y7	Z7	X8	Y8	Z8	X9	Y9	Z9	X10	Y10	Z10	X11	Y11	Z11	X12	Y12	Z12	X13	Y13	Z13	X14	Y14	Z14	X15	Y15	Z15	X16	Y16	Z16	X17	Y17	Z17	X18	Y18	Z18	X19	Y19	Z19	X20	Y20	Z20	X21	Y21	Z21	X22	Y22	Z22	X23	Y23	Z23	X24	Y24	Z24

307	1.224	0.23156553	-0.031639947	0.032473238	1.1146835	0.045321963	0.1299247	0.1463281	0.093753777	-0.028511776	0.96673005	0.052998237	0.1610429	0.17805418	0.095538616	0.064169304	0.97291095	0.095406866	0.070903363	0.076529954	0.11066654	0.016859604	0.89957342	0.031626956	0.11023845	0.41324062	0.42089434	-0.066037117	0.90759356	0.50857217	0.21885983	0.42743771	0.40718793	0.059269611	0.89733995	0.49361925	0.095349677	0.57432809	0.798847	-0.086395658	0.64934369	0.81421583	0.28162576	0.69068463	0.86479989	-0.048134492	0.71880299	0.89017652	0.1929627	0.54468981	0.94309623	0.089824888	0.74560764	1.3246956	-0.084435801	0.72424415	1.3384988	0.24597115	0.66525382	1.384708	0.075879334	0.64408173	0.95309348	-0.14671427	0.54065968	1.0309112	0.32625854	0.91213814	0.89260936	-0.11557794	0.61604714	0.77188822	0.38344498
308	1.228	0.23250404	-0.031043066	0.031928634	1.1156116	0.044174481	0.12871204	0.15055025	0.096545381	-0.030180871	0.9677537	0.052883709	0.16053468	0.18258839	0.097799005	0.062341063	0.97388061	0.094876203	0.070107626	0.081488923	0.11506782	0.015433303	0.90006503	0.031833225	0.11001418	0.42186524	0.42029423	-0.066737604	0.91402202	0.50834648	0.21914317	0.43593218	0.40565251	0.059045916	0.90415411	0.4943973	0.095500747	0.58226203	0.79823653	-0.085929516	0.65682759	0.81570789	0.28203412	0.69851539	0.86438376	-0.047211145	0.72641846	0.89125226	0.19345475	0.55230961	0.94325263	0.089825134	0.75339558	1.3247201	-0.084113278	0.73129327	1.3386724	0.24642589	0.67268233	1.3847854	0.07633366	0.65021834	0.95355619	-0.14638748	0.54847614	1.0305994	0.32649399	0.91788748	0.89145289	-0.1152644	0.62447606	0.77170689	0.38355405
309	1.232	0.23362026	-0.030286934	0.03136272	1.1162098	0.043455801	0.12722861	0.15501717	0.099532951	-0.031669918	0.96839006	0.052901847	0.15999232	0.18736531	0.10021067	0.060685668	0.97445342	0.094289956	0.069257463	0.086744408	0.11967717	0.0142055	0.90037764	0.031949648	0.10981293	0.43089683	0.41962055	-0.067541002	0.92036286	0.50804087	0.21955523	0.44496033	0.40420163	0.058371793	0.91067758	0.49481084	0.095495109	0.5902155	0.79764953	-0.085538152	0.66445376	0.81722479	0.2823783	0.70640078	0.86417996	-0.046163922	0.73393592	0.89240123	0.19387079	0.55987224	0.94356955	0.089860483	0.76115743	1.324821	-0.083763331	0.73828262	1.33893	0.246857	0.67998042	1.3849773	0.076739924	0.65633281	0.95413051	-0.1460886	0.55625576	1.0303474	0.32670598	0.92352995	0.89020723	-0.11495688	0.63300706	0.77163064	0.38366471
310	1.236	0.23490918	-0.029358598	0.030783924	1.1166994	0.042917031	0.12581808	0.15975934	0.10276186	-0.032963438	0.96873624	0.053026238	0.15950733	0.19241361	0.10280465	0.059230306	0.97479791	0.093710658	0.068497211	0.092322391	0.12453847	0.013164947	0.90058864	0.032027917	0.10969537	0.44036742	0.41887967	-0.06844459	0.92666334	0.50769841	0.22005267	0.45440806	0.40279429	0.057397894	0.91699767	0.49494665	0.095333955	0.59816358	0.79714158	-0.085167645	0.67214796	0.81870923	0.28270356	0.71425848	0.86414373	-0.045076166	0.74131321	0.89356635	0.19424919	0.56726969	0.94406128	0.089959877	0.7688321	1.3250159	-0.08334677	0.74521601	1.3392711	0.24726592	0.68693521	1.3853262	0.077034017	0.66244016	0.95483158	-0.14583489	0.56396576	1.0301491	0.32687476	0.92908683	0.88886974	-0.11466054	0.64165521	0.77166547	0.38378413
311	1.24	0.2363499	-0.028248693	0.030185314	1.1171789	0.042445276	0.12479848	0.16478124	0.10624997	-0.034061925	0.96893554	0.05318187	0.15910951	0.19773446	0.10558864	0.057977289	0.97504821	0.093184679	0.06787927	0.098233955	0.12967588	0.012302641	0.90076864	0.032091496	0.10960842	0.45022862	0.41808038	-0.069410196	0.93286175	0.50731032	0.22048148	0.46414873	0.40134808	0.056364652	0.92315391	0.49491265	0.095061625	0.60609109	0.79673898	-0.084778191	0.67984615	0.8201247	0.28304702	0.72198762	0.86420459	-0.044049871	0.74852185	0.89470031	0.19462834	0.57440933	0.94473746	0.090109097	0.77641168	1.3253138	-0.082873382	0.75209001	1.3396999	0.24765129	0.69335804	1.3858495	0.077166401	0.66854932	0.95566342	-0.1456188	0.57158881	1.0300073	0.32699829	0.93456639	0.88744858	-0.11437877	0.65036815	0.77179099	0.3838868
312	1.244	0.23792513	-0.026942493	0.029558194	1.1176101	0.042022536	0.12433667	0.17007912	0.10998555	-0.034973017	0.96909786	0.053294707	0.15879832	0.2033133	0.10855831	0.056928547	0.97529264	0.092749912	0.067404269	0.10447803	0.13508544	0.011613927	0.90095206	0.032150917	0.10950045	0.46038486	0.41723658	-0.070388141	0.93883001	0.50685239	0.22064828	0.47411811	0.39983284	0.055375008	0.92913735	0.49479888	0.094745084	0.61399245	0.79643423	-0.08434456	0.68749346	0.82145389	0.28343266	0.72955282	0.86434041	-0.043112371	0.75555024	0.89577582	0.19503737	0.58133081	0.9455704	0.090286981	0.78390393	1.3257193	-0.082375034	0.75889857	1.340221	0.24801017	0.69935426	1.3865035	0.077172638	0.67465675	0.95662202	-0.14541736	0.57913877	1.0299377	0.32709572	0.93996355	0.88596007	-0.11411567	0.65902308	0.77196077	0.38391023
